Coordinates
version=1
nRows=65
nColumns=12
inDegrees=yes

Units are S.I. units (second, meters, Newtons, ...)
Angles are in degrees

endheader
time	SC_y	SC_z	SC_x	AC_y	AC_z	AC_x	GH_y	GH_z	GH_yy	EL_x	PS_y
       0.0              -56.35          38.86          38.73          31.69         -6.441          14.09          72.39         -1.558         -164.7          94.62          33.64
  0.005437              -56.34          38.86          38.73          31.69         -6.442          14.09          72.37         -1.549         -164.7          94.61          33.65
   0.01087              -56.34          38.86          38.73          31.69         -6.443          14.09          72.35          -1.54         -164.6           94.6          33.66
   0.01631              -56.34          38.85          38.72          31.69         -6.445          14.09          72.33         -1.531         -164.6           94.6          33.67
   0.02175              -56.34          38.85          38.72          31.69         -6.446          14.09           72.3         -1.521         -164.5          94.59          33.68
   0.02719              -56.33          38.85          38.71          31.69         -6.448          14.09          72.28          -1.51         -164.5          94.58          33.69
   0.03262              -56.33          38.85          38.71          31.69          -6.45          14.09          72.25         -1.498         -164.4          94.57           33.7
   0.03806              -56.33          38.85          38.71          31.69         -6.452          14.09          72.22         -1.486         -164.4          94.56          33.71
    0.0435              -56.32          38.85           38.7          31.69         -6.454          14.09          72.19         -1.473         -164.3          94.55          33.72
   0.04894              -56.32          38.84           38.7           31.7         -6.456          14.09          72.15         -1.459         -164.3          94.54          33.74
   0.05437              -56.32          38.84          38.69           31.7         -6.458          14.09          72.12         -1.443         -164.2          94.53          33.75
   0.05981              -56.31          38.84          38.69           31.7         -6.461          14.09          72.08         -1.427         -164.1          94.51          33.77
   0.06525              -56.31          38.84          38.68           31.7         -6.464          14.09          72.03         -1.409         -164.1           94.5          33.79
   0.07069               -56.3          38.83          38.67           31.7         -6.466          14.09          71.99          -1.39         -164.0          94.48           33.8
   0.07612              -56.29          38.83          38.67           31.7          -6.47          14.08          71.94         -1.369         -163.9          94.47          33.82
   0.08156              -56.29          38.83          38.66           31.7         -6.473          14.08          71.88         -1.347         -163.8          94.45          33.85
     0.087              -56.28          38.82          38.65           31.7         -6.477          14.08          71.82         -1.323         -163.7          94.43          33.87
   0.09244              -56.27          38.82          38.64          31.71         -6.481          14.08          71.76         -1.296         -163.6          94.41           33.9
   0.09787              -56.27          38.81          38.63          31.71         -6.485          14.08          71.69         -1.267         -163.5          94.38          33.92
    0.1033              -56.26          38.81          38.62          31.71          -6.49          14.08          71.61         -1.235         -163.3          94.36          33.95
    0.1087              -56.25           38.8          38.61          31.71         -6.495          14.08          71.53         -1.201         -163.2          94.33          33.99
    0.1142              -56.24           38.8           38.6          31.71         -6.501          14.08          71.43         -1.162         -163.0           94.3          34.03
    0.1196              -56.23          38.79          38.58          31.72         -6.508          14.08          71.33          -1.12         -162.9          94.26          34.07
    0.1251              -56.21          38.78          38.57          31.72         -6.515          14.08          71.22         -1.073         -162.7          94.23          34.11
    0.1305               -56.2          38.77          38.55          31.72         -6.523          14.07          71.09         -1.021         -162.4          94.18          34.16
    0.1359              -56.18          38.76          38.53          31.73         -6.532          14.07          70.95        -0.9626         -162.2          94.14          34.22
    0.1414              -56.16          38.75          38.51          31.73         -6.542          14.07          70.79        -0.8973         -161.9          94.08          34.28
    0.1468              -56.14          38.74          38.48          31.74         -6.553          14.07          70.61         -0.824         -161.6          94.03          34.35
    0.1522              -56.12          38.73          38.45          31.74         -6.566          14.07          70.41        -0.7411         -161.3          93.96          34.43
    0.1577              -56.09          38.71          38.42          31.75          -6.58          14.06          70.18         -0.647         -160.9          93.88          34.53
    0.1631              -56.06           38.7          38.38          31.75         -6.597          14.06          69.92        -0.5395         -160.4           93.8          34.63
    0.1686              -56.03          38.68          38.34          31.76         -6.616          14.06          69.63        -0.4163         -159.9           93.7          34.75
     0.174              -55.99          38.65          38.29          31.77         -6.637          14.05          69.28        -0.2739         -159.3          93.58          34.89
    0.1794              -55.94          38.63          38.24          31.78         -6.663          14.05          68.88        -0.1085         -158.6          93.45          35.05
    0.1849              -55.89          38.59          38.17          31.79         -6.692          14.04          68.41        0.08497         -157.8          93.29          35.24
    0.1903              -55.83          38.56          38.09          31.81         -6.727          14.04          67.86         0.3131         -156.8          93.11          35.46
    0.1957              -55.75          38.51           38.0          31.83         -6.769          14.03           67.2         0.5842         -155.7          92.89          35.72
    0.2012              -55.66          38.46          37.89          31.85         -6.819          14.02          66.41         0.9092         -154.3          92.63          36.04
    0.2066              -55.55           38.4          37.75          31.87         -6.879          14.01          65.46          1.302         -152.7          92.31          36.42
    0.2121              -55.42          38.32          37.59           31.9         -6.953          13.99          64.29          1.783         -150.7          91.92          36.88
    0.2175              -55.25          38.23          37.39          31.94         -7.043          13.98          62.86          2.375         -148.2          91.44          37.46
    0.2229              -55.05          38.11          37.13          31.99         -7.157          13.96          61.07          3.114         -145.1          90.85          38.18
    0.2284              -54.79          37.96          36.82          32.05         -7.299          13.93          58.81          4.046         -141.2           90.1          39.08
    0.2338              -54.46          37.77          36.41          32.13         -7.481           13.9          55.94          5.229         -136.2          89.14          40.23
    0.2392              -54.04          37.52          35.89          32.22         -7.713          13.85          52.27          6.744         -129.8          87.92           41.7
    0.2447               -53.5          37.21          35.23          32.35         -8.011           13.8          47.55          8.688         -121.7          86.35          43.59
    0.2501               -52.8          36.81          34.38          32.51         -8.391          13.72          41.53          11.17         -111.2          84.34           46.0
    0.2556              -51.94          36.31          33.31          32.71          -8.87          13.63          33.96          14.29         -98.12          81.82          49.03
     0.261              -50.88           35.7          32.01          32.95         -9.453          13.53          24.74           18.1         -82.14          78.75          52.72
    0.2664              -49.65          34.99          30.51          33.24         -10.13           13.4          14.04          22.51         -63.61          75.19           57.0
    0.2719              -48.32          34.22          28.87          33.55         -10.86          13.26          2.464          27.29         -43.56          71.34          61.63
    0.2773              -46.99          33.45          27.24          33.85         -11.59          13.12         -9.114          32.06          -23.5          67.49          66.27
    0.2827              -45.76          32.74          25.73          34.14         -12.27           13.0         -19.81          36.47         -4.973          63.93          70.55
    0.2882               -44.7          32.13          24.43          34.38         -12.85          12.89         -29.03          40.28          11.01          60.86          74.24
    0.2936              -43.83          31.63          23.37          34.58         -13.33           12.8          -36.6           43.4          24.12          58.34          77.27
    0.2991              -43.14          31.23          22.52          34.74         -13.71          12.73         -42.62          45.88          34.55          56.33          79.68
    0.3045               -42.6          30.92          21.85          34.87         -14.01          12.67         -47.34          47.83          42.72          54.76          81.57
    0.3099              -42.18          30.67          21.33          34.97         -14.24          12.63         -51.01          49.34          49.08          53.54          83.04
    0.3154              -41.85          30.48          20.93          35.04         -14.42          12.59         -53.88          50.53          54.05          52.58          84.19
    0.3208              -41.59          30.33          20.61           35.1         -14.56          12.57         -56.14          51.46          57.96          51.83          85.09
    0.3262              -41.39          30.21          20.36          35.15         -14.68          12.55         -57.93           52.2          61.07          51.24          85.81
    0.3317              -41.22          30.12          20.16          35.19         -14.77          12.53         -59.37          52.79          63.56          50.76          86.39
    0.3371              -41.09          30.04          19.99          35.22         -14.84          12.51         -60.53          53.27          65.57          50.37          86.85
    0.3426              -40.98          29.98          19.86          35.24          -14.9           12.5         -61.48          53.66          67.22          50.05          87.23
     0.348              -40.89          29.93          19.75          35.26         -14.95          12.49         -62.27          53.99          68.59          49.79          87.55
